HIERARCHY
ROOT	Hips
{
	OFFSET	0.000	0.000	0.000
	CHANNELS	6	Xposition	Yposition	Zposition	Yrotation	Xrotation	Zrotation
	JOINT	LeftThigh
	{
		OFFSET	7.642	-0.000	0.000
		CHANNELS	3	Yrotation	Xrotation	Zrotation
		JOINT	LeftShin
		{
			OFFSET	0.000	-40.759	0.000
			CHANNELS	3	Yrotation	Xrotation	Zrotation
			JOINT	LeftFoot
			{
				OFFSET	0.000	-40.854	-0.059
				CHANNELS	3	Yrotation	Xrotation	Zrotation
				JOINT	LeftToe
				{
					OFFSET	0.000	-12.409	5.879
					CHANNELS	3	Yrotation	Xrotation	Zrotation
					End Site
					{
						OFFSET	0.000	-7.016	1.185
					}
				}
			}
		}
	}
	JOINT	RightThigh
	{
		OFFSET	-7.642	0.000	-0.000
		CHANNELS	3	Yrotation	Xrotation	Zrotation
		JOINT	RightShin
		{
			OFFSET	-0.000	-40.759	0.000
			CHANNELS	3	Yrotation	Xrotation	Zrotation
			JOINT	RightFoot
			{
				OFFSET	0.000	-40.854	-0.059
				CHANNELS	3	Yrotation	Xrotation	Zrotation
				JOINT	RightToe
				{
					OFFSET	-0.000	-12.409	5.879
					CHANNELS	3	Yrotation	Xrotation	Zrotation
					End Site
					{
						OFFSET	0.000	-7.016	1.185
					}
				}
			}
		}
	}
	JOINT	Spine1
	{
		OFFSET	0.000	8.005	-3.725
		CHANNELS	3	Yrotation	Xrotation	Zrotation
		JOINT	Spine2
		{
			OFFSET	0.000	-7.164	-0.000
			CHANNELS	3	Yrotation	Xrotation	Zrotation
			JOINT	Spine3
			{
				OFFSET	0.000	-7.164	0.000
				CHANNELS	3	Yrotation	Xrotation	Zrotation
				JOINT	Spine4
				{
					OFFSET	0.000	-12.097	-0.000
					CHANNELS	3	Yrotation	Xrotation	Zrotation
					JOINT	LeftShoulder
					{
						OFFSET	-6.642	-11.736	1.807
						CHANNELS	3	Yrotation	Xrotation	Zrotation
						JOINT	LeftArm
						{
							OFFSET	-0.000	-12.849	0.000
							CHANNELS	3	Yrotation	Xrotation	Zrotation
							JOINT	LeftForeArm
							{
								OFFSET	0.000	-24.625	0.000
								CHANNELS	3	Yrotation	Xrotation	Zrotation
								JOINT	LeftHand
								{
									OFFSET	-0.000	-27.116	0.000
									CHANNELS	3	Yrotation	Xrotation	Zrotation
									JOINT	LeftFinger1Metacarpal
									{
										OFFSET	2.664	-1.988	0.099
										CHANNELS	3	Yrotation	Xrotation	Zrotation
										JOINT	LeftFinger1Proximal
										{
											OFFSET	0.000	-3.769	0.000
											CHANNELS	3	Yrotation	Xrotation	Zrotation
											JOINT	LeftFinger1Distal
											{
												OFFSET	0.000	-2.861	-0.000
												CHANNELS	3	Yrotation	Xrotation	Zrotation
												End Site
												{
													OFFSET	0.000	-3.269	-0.000
												}
											}
										}
									}
									JOINT	LeftFinger2Metacarpal
									{
										OFFSET	1.534	-2.531	0.099
										CHANNELS	3	Yrotation	Xrotation	Zrotation
										JOINT	LeftFinger2Proximal
										{
											OFFSET	-0.000	-5.243	-0.000
											CHANNELS	3	Yrotation	Xrotation	Zrotation
											JOINT	LeftFinger2Medial
											{
												OFFSET	0.000	-4.425	-0.000
												CHANNELS	3	Yrotation	Xrotation	Zrotation
												JOINT	LeftFinger2Distal
												{
													OFFSET	-0.000	-2.723	0.000
													CHANNELS	3	Yrotation	Xrotation	Zrotation
													End Site
													{
														OFFSET	-0.000	-2.668	-0.000
													}
												}
											}
										}
									}
									JOINT	LeftFinger3Metacarpal
									{
										OFFSET	0.521	-2.647	0.098
										CHANNELS	3	Yrotation	Xrotation	Zrotation
										JOINT	LeftFinger3Proximal
										{
											OFFSET	-0.000	-5.132	0.000
											CHANNELS	3	Yrotation	Xrotation	Zrotation
											JOINT	LeftFinger3Medial
											{
												OFFSET	-0.000	-4.496	-0.000
												CHANNELS	3	Yrotation	Xrotation	Zrotation
												JOINT	LeftFinger3Distal
												{
													OFFSET	-0.000	-2.965	0.000
													CHANNELS	3	Yrotation	Xrotation	Zrotation
													End Site
													{
														OFFSET	-0.000	-2.868	-0.000
													}
												}
											}
										}
									}
									JOINT	LeftFinger4Metacarpal
									{
										OFFSET	-0.524	-2.624	0.099
										CHANNELS	3	Yrotation	Xrotation	Zrotation
										JOINT	LeftFinger4Proximal
										{
											OFFSET	-0.000	-4.891	0.000
											CHANNELS	3	Yrotation	Xrotation	Zrotation
											JOINT	LeftFinger4Medial
											{
												OFFSET	0.000	-4.243	-0.000
												CHANNELS	3	Yrotation	Xrotation	Zrotation
												JOINT	LeftFinger4Distal
												{
													OFFSET	-0.000	-2.737	0.000
													CHANNELS	3	Yrotation	Xrotation	Zrotation
													End Site
													{
														OFFSET	-0.000	-2.664	-0.000
													}
												}
											}
										}
									}
									JOINT	LeftFinger5Metacarpal
									{
										OFFSET	-1.423	-2.380	0.098
										CHANNELS	3	Yrotation	Xrotation	Zrotation
										JOINT	LeftFinger5Proximal
										{
											OFFSET	-0.000	-4.585	-0.000
											CHANNELS	3	Yrotation	Xrotation	Zrotation
											JOINT	LeftFinger5Medial
											{
												OFFSET	-0.000	-3.598	0.000
												CHANNELS	3	Yrotation	Xrotation	Zrotation
												JOINT	LeftFinger5Distal
												{
													OFFSET	0.000	-2.262	-0.000
													CHANNELS	3	Yrotation	Xrotation	Zrotation
													End Site
													{
														OFFSET	-0.000	-2.304	0.000
													}
												}
											}
										}
									}
								}
							}
						}
					}
					JOINT	Neck
					{
						OFFSET	0.000	-19.121	-0.000
						CHANNELS	3	Yrotation	Xrotation	Zrotation
						JOINT	Head
						{
							OFFSET	0.000	-9.862	0.000
							CHANNELS	3	Yrotation	Xrotation	Zrotation
							End Site
							{
								OFFSET	0.000	-14.898	0.000
							}
						}
					}
					JOINT	RightShoulder
					{
						OFFSET	6.642	-11.736	1.807
						CHANNELS	3	Yrotation	Xrotation	Zrotation
						JOINT	RightArm
						{
							OFFSET	-0.000	-12.849	-0.000
							CHANNELS	3	Yrotation	Xrotation	Zrotation
							JOINT	RightForeArm
							{
								OFFSET	-0.000	-24.625	0.000
								CHANNELS	3	Yrotation	Xrotation	Zrotation
								JOINT	RightHand
								{
									OFFSET	0.000	-27.116	0.000
									CHANNELS	3	Yrotation	Xrotation	Zrotation
									JOINT	RightFinger1Metacarpal
									{
										OFFSET	-2.664	-1.988	0.099
										CHANNELS	3	Yrotation	Xrotation	Zrotation
										JOINT	RightFinger1Proximal
										{
											OFFSET	-0.000	-3.769	-0.000
											CHANNELS	3	Yrotation	Xrotation	Zrotation
											JOINT	RightFinger1Distal
											{
												OFFSET	0.000	-2.861	-0.000
												CHANNELS	3	Yrotation	Xrotation	Zrotation
												End Site
												{
													OFFSET	-0.000	-3.269	-0.000
												}
											}
										}
									}
									JOINT	RightFinger2Metacarpal
									{
										OFFSET	-1.534	-2.531	0.099
										CHANNELS	3	Yrotation	Xrotation	Zrotation
										JOINT	RightFinger2Proximal
										{
											OFFSET	0.000	-5.243	-0.000
											CHANNELS	3	Yrotation	Xrotation	Zrotation
											JOINT	RightFinger2Medial
											{
												OFFSET	-0.000	-4.425	-0.000
												CHANNELS	3	Yrotation	Xrotation	Zrotation
												JOINT	RightFinger2Distal
												{
													OFFSET	0.000	-2.723	-0.000
													CHANNELS	3	Yrotation	Xrotation	Zrotation
													End Site
													{
														OFFSET	0.000	-2.668	-0.000
													}
												}
											}
										}
									}
									JOINT	RightFinger3Metacarpal
									{
										OFFSET	-0.521	-2.647	0.098
										CHANNELS	3	Yrotation	Xrotation	Zrotation
										JOINT	RightFinger3Proximal
										{
											OFFSET	0.000	-5.132	0.000
											CHANNELS	3	Yrotation	Xrotation	Zrotation
											JOINT	RightFinger3Medial
											{
												OFFSET	0.000	-4.496	-0.000
												CHANNELS	3	Yrotation	Xrotation	Zrotation
												JOINT	RightFinger3Distal
												{
													OFFSET	-0.000	-2.965	-0.000
													CHANNELS	3	Yrotation	Xrotation	Zrotation
													End Site
													{
														OFFSET	0.000	-2.868	-0.000
													}
												}
											}
										}
									}
									JOINT	RightFinger4Metacarpal
									{
										OFFSET	0.524	-2.624	0.099
										CHANNELS	3	Yrotation	Xrotation	Zrotation
										JOINT	RightFinger4Proximal
										{
											OFFSET	0.000	-4.891	0.000
											CHANNELS	3	Yrotation	Xrotation	Zrotation
											JOINT	RightFinger4Medial
											{
												OFFSET	-0.000	-4.243	-0.000
												CHANNELS	3	Yrotation	Xrotation	Zrotation
												JOINT	RightFinger4Distal
												{
													OFFSET	0.000	-2.737	0.000
													CHANNELS	3	Yrotation	Xrotation	Zrotation
													End Site
													{
														OFFSET	0.000	-2.664	-0.000
													}
												}
											}
										}
									}
									JOINT	RightFinger5Metacarpal
									{
										OFFSET	1.423	-2.380	0.098
										CHANNELS	3	Yrotation	Xrotation	Zrotation
										JOINT	RightFinger5Proximal
										{
											OFFSET	0.000	-4.585	0.000
											CHANNELS	3	Yrotation	Xrotation	Zrotation
											JOINT	RightFinger5Medial
											{
												OFFSET	0.000	-3.598	0.000
												CHANNELS	3	Yrotation	Xrotation	Zrotation
												JOINT	RightFinger5Distal
												{
													OFFSET	-0.000	-2.262	-0.000
													CHANNELS	3	Yrotation	Xrotation	Zrotation
													End Site
													{
														OFFSET	0.000	-2.304	0.000
													}
												}
											}
										}
									}
								}
							}
						}
					}
				}
			}
		}
	}
}
MOTION
Frames:	5
Frame Time:	0.010
0.762	75.025	-12.443	-403.176	12.367	-356.811	-50.616	355.364	-308.191	0.036	0.022	-61.543	83.696	74.101	185.208	0.000	2.220	-0.048	-286.540	12.913	-45.547	-364.662	363.011	-294.215	-69.895	56.523	-182.319	0.000	0.599	-0.000	-364.291	4.276	-180.688	4.303	355.712	-360.690	4.304	355.711	-360.690	0.000	-0.000	-0.000	-13.696	8.353	-84.456	-147.100	307.196	-284.266	-48.473	344.167	-269.021	-375.156	384.192	25.738	-65.333	8.015	-325.696	-15.166	336.151	-14.393	-0.000	347.029	-0.000	-0.000	0.000	-350.000	-354.271	322.083	-16.575	0.000	317.291	0.000	-0.000	331.527	-0.000	-0.000	-0.000	0.000	7.266	315.004	-377.431	0.000	308.182	0.000	-0.000	325.454	-0.000	-357.274	357.452	-10.128	8.297	310.975	-378.076	0.000	305.829	-0.000	-0.000	323.886	-0.000	-354.070	354.881	-20.590	8.200	310.958	-377.860	-0.000	308.744	0.000	-0.000	325.829	-0.000	-383.128	1.481	-5.278	-383.128	1.481	-5.278	-335.468	7.646	-284.456	-247.204	316.127	-21.883	39.554	-37.095	-82.995	-381.596	-24.479	-4.277	-275.543	21.461	-28.662	-5.575	339.422	-350.571	-0.000	344.728	-0.000	0.000	-0.000	-10.000	-6.036	319.137	-341.559	0.000	314.396	-0.000	-0.000	329.597	-0.000	0.000	-0.000	-0.000	-7.421	311.810	-343.497	0.000	310.110	-0.000	-0.000	326.740	-0.000	-2.726	357.452	-349.872	-367.521	304.700	14.302	0.000	303.219	0.000	-0.000	322.146	-0.000	-5.930	354.881	-339.410	-6.560	307.762	-346.665	-0.000	306.327	0.000	-0.000	324.218	-0.000	
0.694	75.082	-12.059	-400.177	12.475	-356.008	-53.593	355.040	-308.110	0.036	0.022	-61.583	81.171	74.775	183.544	-0.000	2.976	-0.049	-287.539	13.772	-45.095	-364.908	363.185	-293.978	-71.830	55.836	-182.425	-0.000	0.608	-0.000	-364.123	4.045	-180.312	4.133	355.945	-360.313	4.135	355.943	-360.314	0.000	-0.000	-0.000	-14.377	8.551	-84.258	-147.688	307.803	-284.265	-48.103	345.137	-268.143	-376.885	389.014	26.455	-65.470	7.482	-325.496	-14.430	334.742	-13.837	-0.000	345.828	-0.000	-0.000	0.000	-350.000	-354.054	320.998	-16.688	0.000	315.805	0.000	-0.000	330.537	-0.000	-0.000	-0.000	0.000	7.568	313.767	-377.614	-0.000	306.670	0.000	-0.000	324.447	-0.000	-357.274	357.452	-10.128	8.636	309.763	-378.299	-0.000	304.477	-0.000	-0.000	322.985	-0.000	-354.070	354.881	-20.590	8.165	309.876	-377.357	-0.000	307.821	-0.000	-0.000	325.214	-0.000	-381.924	0.968	-5.524	-381.924	0.968	-5.524	-335.122	7.138	-284.380	-246.059	314.264	-22.433	41.075	-38.431	-83.893	-381.960	-22.238	-1.659	-275.605	21.620	-28.761	-5.433	339.584	-350.682	-0.000	345.084	-0.000	0.000	-0.000	-10.000	-6.310	318.245	-341.793	-0.000	314.467	0.000	-0.000	329.645	-0.000	0.000	-0.000	-0.000	-7.068	311.618	-344.345	-0.000	310.098	0.000	-0.000	326.732	-0.000	-2.726	357.452	-349.872	-367.542	304.739	14.353	-0.000	303.258	0.000	-0.000	322.172	-0.000	-5.930	354.881	-339.410	-6.771	307.991	-346.172	-0.000	306.484	-0.000	-0.000	324.323	-0.000	
0.599	75.158	-11.724	-396.930	12.563	-355.194	-56.791	354.696	-308.022	0.036	0.022	-61.367	80.377	75.189	182.804	-0.000	3.276	-0.048	-286.819	14.418	-44.212	-363.927	362.559	-293.735	-74.847	54.906	-180.294	-0.000	0.622	-0.000	-363.921	3.773	-179.919	3.930	356.218	-359.919	3.933	356.216	-359.919	0.000	-0.000	-0.000	-15.045	8.861	-84.047	-148.261	308.518	-284.020	-47.880	345.973	-267.050	-377.194	392.750	26.943	-65.552	7.145	-325.325	-13.980	333.872	-13.358	-0.000	345.070	-0.000	-0.000	0.000	-350.000	-353.889	320.196	-16.775	0.000	314.786	0.000	-0.000	329.858	-0.000	-0.000	-0.000	0.000	7.782	312.918	-377.748	0.000	305.764	-0.000	-0.000	323.843	-0.000	-357.274	357.452	-10.128	8.857	309.003	-378.447	-0.000	303.667	0.000	-0.000	322.445	-0.000	-354.070	354.881	-20.590	8.049	309.192	-376.854	0.000	307.285	-0.000	-0.000	324.857	-0.000	-380.557	0.452	-5.754	-380.557	0.452	-5.754	-334.719	6.437	-284.325	-245.072	312.237	-23.103	42.594	-39.844	-84.887	-383.031	-20.324	1.354	-275.683	21.812	-28.890	-5.261	339.849	-350.899	-0.000	345.518	-0.000	0.000	-0.000	-10.000	-6.615	317.194	-342.006	-0.000	314.398	0.000	-0.000	329.599	-0.000	0.000	-0.000	-0.000	-6.635	311.399	-345.369	0.000	310.077	0.000	-0.000	326.718	-0.000	-2.726	357.452	-349.872	-367.550	304.831	14.397	0.000	303.355	0.000	-0.000	322.236	-0.000	-5.930	354.881	-339.410	-6.943	308.355	-345.710	0.000	306.792	-0.000	-0.000	324.528	-0.000	
0.573	75.204	-11.343	-394.367	12.674	-354.607	-59.324	354.403	-307.885	0.036	0.021	-61.244	79.556	75.366	181.916	-0.000	3.435	-0.044	-284.266	14.886	-43.068	-362.258	361.478	-293.478	-78.448	54.109	-176.878	-0.000	0.641	0.000	-363.397	3.479	-179.531	3.403	356.514	-359.530	3.407	356.510	-359.529	0.000	-0.000	-0.000	-15.622	9.290	-83.824	-148.675	309.251	-283.582	-47.812	346.610	-265.782	-378.546	397.720	26.829	-65.654	6.717	-325.078	-13.419	332.768	-12.667	-0.000	344.106	-0.000	-0.000	0.000	-350.000	-353.683	319.215	-16.886	0.000	313.458	-0.000	-0.000	328.972	-0.000	-0.000	-0.000	0.000	8.037	311.941	-377.908	0.000	304.631	-0.000	-0.000	323.087	-0.000	-357.274	357.452	-10.128	9.118	308.134	-378.624	0.000	302.681	-0.000	-0.000	321.787	-0.000	-354.070	354.881	-20.590	7.780	308.505	-376.049	0.000	306.786	-0.000	-0.000	324.524	-0.000	-379.027	-0.049	-5.935	-379.027	-0.049	-5.935	-334.324	5.537	-284.255	-244.161	310.125	-24.037	43.999	-41.298	-85.986	-383.320	-17.047	2.802	-275.738	21.947	-28.982	-5.148	340.010	-351.061	-0.000	345.822	-0.000	0.000	-0.000	-10.000	-6.828	316.472	-342.179	-0.000	314.283	0.000	-0.000	329.522	-0.000	0.000	-0.000	-0.000	-6.347	311.276	-346.037	-0.000	310.079	0.000	-0.000	326.719	-0.000	-2.726	357.452	-349.872	-367.545	304.891	14.404	0.000	303.422	-0.000	-0.000	322.282	-0.000	-5.930	354.881	-339.410	-7.046	308.603	-345.419	0.000	307.013	0.000	-0.000	324.675	-0.000	
0.579	75.249	-10.836	-390.834	12.639	-353.890	-62.153	353.847	-307.856	0.036	0.021	-61.011	79.364	75.532	182.252	0.000	3.453	-0.036	-285.163	15.565	-42.234	-362.243	361.475	-293.262	-80.602	53.737	-176.777	0.000	0.668	-0.000	-363.101	3.172	-179.117	3.105	356.823	-359.116	3.110	356.818	-359.115	0.000	-0.000	-0.000	-16.047	9.796	-83.589	-148.791	309.969	-283.068	-47.790	347.097	-264.326	-379.126	401.764	26.548	-65.729	6.387	-324.854	-13.001	331.926	-12.039	-0.000	343.365	-0.000	-0.000	0.000	-350.000	-353.530	318.499	-16.971	0.000	312.502	0.000	-0.000	328.335	-0.000	-0.000	-0.000	0.000	8.227	311.230	-378.031	0.000	303.836	-0.000	-0.000	322.558	-0.000	-357.274	357.452	-10.128	9.304	307.530	-378.752	-0.000	302.009	0.000	-0.000	321.339	-0.000	-354.070	354.881	-20.590	7.440	308.176	-375.244	-0.000	306.622	-0.000	-0.000	324.414	-0.000	-377.337	-0.539	-6.056	-377.337	-0.539	-6.056	-334.000	4.530	-284.130	-243.165	308.033	-25.374	45.191	-42.768	-87.237	-383.941	-14.183	3.831	-275.808	22.121	-29.095	-4.946	340.666	-351.414	-0.000	346.212	-0.000	0.000	-0.000	-10.000	-6.214	315.745	-343.814	-0.000	314.053	0.000	-0.000	329.368	-0.000	0.000	-0.000	-0.000	-5.972	311.118	-346.904	0.000	310.063	-0.000	-0.000	326.709	-0.000	-2.726	357.452	-349.872	-367.509	304.951	14.355	-0.000	303.498	0.000	-0.000	322.332	-0.000	-5.930	354.881	-339.410	-7.130	308.901	-345.150	-0.000	307.298	0.000	-0.000	324.865	-0.000	
